<svg xmlns="http://www.w3.org/2000/svg" width="512" height="512" viewBox="0 0 512 512">
  <defs>
    <style>
      .cls-1 {
        fill: #1e90ff;
        fill-rule: evenodd;
      }
    </style>
  </defs>
  <path id="Color_Fill_1" data-name="Color Fill 1" class="cls-1" d="M361,60h71c13.053,0,26.906-1,35,4,17.494,10.8,17.566,41.218,0,52-12.767,7.837-70.043,4-92,4H78c-12.538,0-25.249.782-33-4-17.5-10.8-17.565-41.219,0-52,8.116-4.981,21.931-4,35-4h71C150.151-11.473,197.568,0,265,0c28.884,0,62.3-3.139,79,9C357.668,18.936,361.282,35.678,361,60ZM181,60H331c0.543-14.185.508-26.926-11-29-4.707-2.94-27.329-1-35-1-31.353,0-66.418-2.524-96,1-2.542,3.732-5.928,4.657-7,10C179.72,44.494,180.869,54.648,181,60ZM63,150H449c0.247,20.7-.935,43.394-5,62-4.3,19.676-.894,41.186-5,60q-0.5,13.5-1,27c-7.314,33.181-2.688,71.819-10,105v13c-7.308,33.354.772,70.671-23,87-13.2,9.07-34.216,8-57,8H154c-15.914,0-32.135,1.023-42-5-29.56-18.049-19.01-39.254-27-76l-1-27c-5.691-26.037-2.307-56.864-8-83V307c-3.935-18-2.088-40.049-6-58V235c-2.383-10.91-.346-23.847-3-36C63.731,184.032,63.1,166.669,63,150Zm99,30c-1.073.752-.946,0.6-3,1a68.33,68.33,0,0,1-8,10c-0.14,16.132-.14,33.482,3,48,2.415,11.166-.15,23.082,2,33,3.111,14.35.171,30.96,3,44q0.5,18,1,36c2.1,9.662-.443,21.777,2,33,3.936,18.082,2.785,40.648,5,59,6.055,4.132,6.988,8.009,18,8,4.108-3.348,8.8-4.652,10-11,1.453-2.3,1.864-11.051,1-15-3.368-15.4.513-33.97-3-50-2.108-9.617.368-21.2-2-32-2.058-9.388.386-21.1-2-32-2.2-10.039.524-22.462-2-34-6.279-28.7-1.647-64.684-8-92C173.594,182.378,171.957,179.925,162,180Zm90,0c-1.073.752-.946,0.6-3,1-2.542,3.732-5.928,4.658-7,10-2.848,4.555-1,45.682-1,55V392c0,20-4.375,49.8,8,58,2.522,2.023,6.21,2.1,11,2,3.813-3.706,7.293-7.188,11-11V277c0-29.117,2.124-61.621-1-89a68.33,68.33,0,0,1-10-8h-8Zm90,0c-3.931,3.63-8.759,4.512-10,11-5.8,9.3-.991,43.985-4,58-2.177,10.14.477,22.453-2,34-7.365,34.326-.628,74.638-8,109q-1,24.5-2,49c1.112,3.4,5.163,7.1,8,9,2.522,2.023,6.21,2.1,11,2,3.931-3.63,8.759-4.512,10-11,5.429-8.768,1.157-42.737,4-56,2.234-10.422-.542-23.124,2-35,0.924-4.316-.191-12.435,1-18,6.17-28.824.778-62.957,7-92V222c3.214-15.033,5.079-38.034-9-41C348.31,179.858,345.1,179.934,342,180Z"/>
</svg>
