<svg xmlns="http://www.w3.org/2000/svg" width="512" height="512" viewBox="0 0 512 512">
  <defs>
    <style>
      .cls-1 {
        fill-rule: evenodd;
      }
    </style>
  </defs>
  <path id="Color_Fill_1" data-name="Color Fill 1" class="cls-1" d="M351,0c46.443-.705,74.933,42.592,47,81l-42,41-86,87-33,33c-4.371,4.371-11.511,7.944-13,15,13.2,8.707,23.867,23.867,35,35q37.5,37.5,75,75l46,46c6.664,6.663,15.96,12.938,21,21,21.935,35.086-1.856,69.827-33,78-8.376,2.2-18.172-1.216-23-3-22.482-8.309-34.621-26.62-50-42q-77-77-154-154c-16.927-16.927-49.275-35.012-36-75,4.091-12.324,13.625-18.031,22-26,15.309-14.566,30.046-30.047,45-45L328,10C334.447,5.348,344.514,4.952,351,0Z"/>
</svg>
