<svg xmlns="http://www.w3.org/2000/svg" width="512" height="512" viewBox="0 0 512 512">
  <defs>
    <style>
      .cls-1 {
        fill-rule: evenodd;
      }
    </style>
  </defs>
  <path id="Color_Fill_1" data-name="Color Fill 1" class="cls-1" d="M199,0C311.648-1.624,378.008,56.369,410,135c27.919,68.621,3.8,166.666-36,204v1h1c4.262,11.689,19.838,18.517,27,28,7.079,9.374,17.117,15.885,24,25,16.643,22.04,38.558,41.51,58,61,13.108,13.14,32.316,37.1,7,54-22.718,15.163-40.54-11.513-51-22-26.287-26.353-51.963-53.408-78-80-6.866-7.012-20.182-26.9-30-29-4.682,4.779-11.024,6.364-17,10-39.458,24-107.643,35.185-163,17C83.44,381.477,39.232,331.481,17,262c-8.771-27.411-11.5-72.233-3-103C33.089,89.939,75.545,41.566,137,15c11.125-4.809,24.038-7.858,36-11C180.927,1.918,192.6,4.07,199,0Zm1,54c-4.426,2.778-11.31,1.421-17,3-8.5,2.359-17.737,4.507-26,8-39.377,16.645-68.777,48.12-85,88-3.916,9.627-5.518,20.565-8,31-4.51,18.963-.3,45.67,4,60,15.593,51.968,43.6,84.082,91,104,16.846,7.079,33.962,11,59,11h16c55.875-12.676,94.924-37.273,118-82,6.119-11.861,10.435-26.369,14-40,8.425-32.211-1.757-69.655-11-91C330.088,88.471,283.067,53.885,200,54Z"/>
</svg>
