<svg xmlns="http://www.w3.org/2000/svg" width="512" height="512" viewBox="0 0 512 512">
  <defs>
    <style>
      .cls-1 {
        fill: #225ee8;
        fill-rule: evenodd;
      }
    </style>
  </defs>
  <path id="Color_Fill_1" data-name="Color Fill 1" class="cls-1" d="M27,31H383c36.263,0,108.1-7.69,123,13,10.029,13.93,6,47.874,6,71V406c0,21.345,1.557,43.367-7,56-13.347,19.7-38.383,19-72,19H93c-37.373,0-71.028,3.157-86-19-12.446-18.419-7-74.435-7-105V140c0-22.41-3.929-79.756,4-93C9.583,37.675,18.176,37.2,27,31ZM15,155v93c12.075,3.979,32.861,1,47,1H164c1.021-.8.274-0.355,2-1V155H15Zm166,0v93c12.075,3.979,32.861,1,47,1H330c2.585-7.816,1-21.389,1-31V155H181Zm165,0v93h2c5.291,3.283,32.371,1,41,1H496c2.585-7.816,1-21.389,1-31V155H346ZM15,264v93H166V264H15Zm166,0v93H331V264H181Zm165,0v93H497V264H346ZM15,372c-0.176,22.239-4.256,69.12,5,82s26.5,12,49,12h97V372H15Zm166,0v94H331V372H181Zm165,0v94h97c22.482,0,39.769.886,49-12,9.255-12.918,5.177-59.732,5-82H346Z"/>
</svg>
