<svg xmlns="http://www.w3.org/2000/svg" width="624" height="624" viewBox="0 0 624 624">
  <defs>
    <style>
      .cls-1 {
        fill: #225ee8;
        fill-rule: evenodd;
      }
    </style>
  </defs>
  <path id="Color_Fill_1" data-name="Color Fill 1" class="cls-1" d="M518,133c31.424-.615,40.7,18.7,56,34,7.623,7.623,17.58,14.313,22,25,8.637,20.885-8.968,55.959-29,56-4.779-5.922-12.571-10.571-18-16l-45-46c-6.912-6.912-20.9-15.107-23-26,7.906-5.147,12.517-14.6,20-20C505.73,136.585,513.129,136.505,518,133Zm-57,20v15l-284,1H101c-11.007,0-25.24-1.516-32,3-16.5,11.027-11,50.072-11,77V474c0,7.255-1.282,17.4,1,23,6.8,16.686,24.426,15,48,15H370c15.624,0,51.612,3.279,61-3,16.178-10.82,10.193-76.635,10-105,5.44-3.5,8.706-9.609,16-11v74c0,10.435,2.1,25.391-1,34a46.809,46.809,0,0,1-19,23c-15.021,8.826-65.65,4-89,4H130c-39.193,0-73.038,5.158-85-23-4.607-10.845-3-28.921-3-44V232c0-24.3-2.111-50.091,8-64,16.185-22.265,70.316-15,108-15H461ZM353,470c-1.345-12.674-10.771-24.881-16-35-1.636-3.167-1.926-10.5-5-12H312c-1.021-.8-0.274-0.355-2-1v-4c2.474-3.658.863-14.119,0-18-9.53-4.4-20.267-10.515-30-15-4.87-2.244-11.465-2.355-13-8,13.494-8.959,26.385-26.385,38-38l71-70c14.092-14.092,26.974-29.892,43-42l10-11,25-24c3.748-3.748,6.537-9.025,12-11v1c21.68,20.551,41.872,42.872,63,64,7.557,7.557,20.751,14.651,22,28l-46,47c-32.5,32.5-65.5,64.5-98,97l-37,37C365.205,459.8,360.626,468.4,353,470Zm-12,12c-15.194.916-32.014,2.837-46,6l-24,2c-8.035,1.827-18.163,3.6-27,2-0.961-1.766-1.257-1.68-2-4-2.162-3.457-.282-16.488,1-22,4.078-17.532,3.983-38.454,8-56,1.693-7.393.484-14.436,3-20,9.149,3.956,40.5,15.357,44,23,2.986,4.514.365,14.8,0,20,5.38,1.827,14.972,1.078,22,1C325.7,444.744,339.806,469.688,341,482Z"/>
</svg>
